<svg width="38" height="26" viewBox="0 0 38 26" fill="none" xmlns="http://www.w3.org/2000/svg">
<path fill-rule="evenodd" clip-rule="evenodd" d="M38 13C38 13.383 37.857 13.7504 37.6025 14.0212C37.348 14.2921 37.0029 14.4442 36.6429 14.4442L4.63541 14.4442L13.1767 23.5314C13.4315 23.8026 13.5747 24.1704 13.5747 24.5539C13.5747 24.9375 13.4315 25.3053 13.1767 25.5765C12.9219 25.8476 12.5763 26 12.2159 26C11.8556 26 11.51 25.8476 11.2551 25.5765L0.398682 14.0225C0.272305 13.8884 0.172039 13.729 0.103626 13.5535C0.0352135 13.3781 0 13.19 0 13C0 12.81 0.0352135 12.6219 0.103626 12.4465C0.172039 12.271 0.272305 12.1116 0.398682 11.9775L11.2551 0.423543C11.51 0.152353 11.8556 -9.03605e-09 12.2159 0C12.5763 9.03606e-09 12.9219 0.152353 13.1767 0.423543C13.4315 0.694733 13.5747 1.06255 13.5747 1.44607C13.5747 1.82959 13.4315 2.1974 13.1767 2.46859L4.63541 11.5558L36.6429 11.5558C37.0029 11.5558 37.348 11.7079 37.6025 11.9788C37.857 12.2496 38 12.617 38 13Z" fill="#FBD784"/>
</svg>
