<svg width="38" height="26" viewBox="0 0 38 26" fill="none" xmlns="http://www.w3.org/2000/svg">
<path fill-rule="evenodd" clip-rule="evenodd" d="M0 13C0 12.617 0.142975 12.2496 0.397473 11.9788C0.65197 11.7079 0.997143 11.5558 1.35706 11.5558L33.3646 11.5558L24.8233 2.46859C24.5685 2.1974 24.4253 1.82959 24.4253 1.44606C24.4253 1.06254 24.5685 0.694733 24.8233 0.423542C25.0781 0.152351 25.4237 0 25.7841 0C26.1444 0 26.49 0.152351 26.7449 0.423542L37.6013 11.9775C37.7277 12.1116 37.828 12.271 37.8964 12.4465C37.9648 12.6219 38 12.81 38 13C38 13.19 37.9648 13.3781 37.8964 13.5535C37.828 13.729 37.7277 13.8884 37.6013 14.0225L26.7449 25.5765C26.49 25.8476 26.1444 26 25.7841 26C25.4237 26 25.0781 25.8476 24.8233 25.5765C24.5685 25.3053 24.4253 24.9375 24.4253 24.5539C24.4253 24.1704 24.5685 23.8026 24.8233 23.5314L33.3646 14.4442L1.35706 14.4442C0.997143 14.4442 0.65197 14.2921 0.397473 14.0212C0.142975 13.7504 0 13.383 0 13Z" fill="#FBD784"/>
</svg>
