<svg width="21" height="17" viewBox="0 0 21 17" fill="none" xmlns="http://www.w3.org/2000/svg">
<path d="M20.92 2.01651C20.1507 2.35727 19.3242 2.58752 18.4554 2.69159C19.3519 2.15539 20.0226 1.31147 20.3423 0.317296C19.5001 0.81738 18.5783 1.16939 17.617 1.35801C16.9706 0.668066 16.1143 0.210762 15.1813 0.057094C14.2482 -0.0965741 13.2905 0.0619913 12.4568 0.508172C11.6231 0.954353 10.9601 1.66319 10.5707 2.52462C10.1813 3.38606 10.0873 4.35189 10.3034 5.27219C8.59676 5.18653 6.92723 4.74313 5.40314 3.97075C3.87905 3.19837 2.53447 2.11428 1.45664 0.78884C1.08811 1.42432 0.876197 2.16111 0.876197 2.94578C0.875785 3.65217 1.04981 4.34774 1.38282 4.97078C1.71584 5.59382 2.19755 6.12505 2.78522 6.51736C2.10368 6.49568 1.43718 6.31159 0.841186 5.98042V6.03568C0.841117 7.02642 1.18396 7.98667 1.81153 8.7535C2.4391 9.52033 3.31275 10.0465 4.28424 10.2427C3.652 10.4138 2.98915 10.439 2.34574 10.3164C2.61983 11.1689 3.15375 11.9143 3.87274 12.4484C4.59173 12.9825 5.4598 13.2785 6.35542 13.2949C4.83505 14.4879 2.95741 15.1351 1.02453 15.1322C0.682144 15.1323 0.340046 15.1123 0 15.0724C1.96198 16.3334 4.24586 17.0026 6.57838 17C14.4743 17 18.7908 10.4629 18.7908 4.79328C18.7908 4.60908 18.7862 4.42304 18.7779 4.23884C19.6175 3.63189 20.3422 2.8803 20.9182 2.01927L20.92 2.01651Z" fill="white"/>
</svg>
