<svg width="16" height="24" viewBox="0 0 16 24" fill="none" xmlns="http://www.w3.org/2000/svg">
<path fill-rule="evenodd" clip-rule="evenodd" d="M8 0C8.23571 0 8.46178 0.0903001 8.62845 0.251035C8.79513 0.41177 8.88876 0.629774 8.88876 0.857088V21.0724L14.4809 15.6779C14.6478 15.5169 14.8741 15.4265 15.1101 15.4265C15.3461 15.4265 15.5725 15.5169 15.7394 15.6779C15.9062 15.8388 16 16.0571 16 16.2847C16 16.5123 15.9062 16.7306 15.7394 16.8915L8.62924 23.7482C8.54669 23.828 8.44861 23.8913 8.34063 23.9346C8.23266 23.9778 8.1169 24 8 24C7.8831 24 7.76734 23.9778 7.65937 23.9346C7.55139 23.8913 7.45331 23.828 7.37075 23.7482L0.260642 16.8915C0.0937555 16.7306 -5.56065e-09 16.5123 0 16.2847C5.56065e-09 16.0571 0.0937555 15.8388 0.260642 15.6779C0.427528 15.5169 0.653874 15.4265 0.889887 15.4265C1.1259 15.4265 1.35225 15.5169 1.51913 15.6779L7.11124 21.0724V0.857088C7.11124 0.629774 7.20487 0.41177 7.37155 0.251035C7.53823 0.0903001 7.76429 0 8 0Z" fill="white"/>
</svg>
